<svg xmlns="http://www.w3.org/2000/svg" viewBox="0 0 900 600" width="900" height="600"><g stroke-width=".5" stroke-linejoin="bevel" fill="#f0f0f0" stroke="#e8e8e8"><path d="m470.7 322.2 45-28.1-34-19.2Z"/><path d="m515.7 294.1 4.4-13-38.4-6.2Z"/><path d="m515.7 294.1 19.4-22.2-15 9.2Zm4.4-13-18.4-53.5-20 47.3Zm-63.4-24.3-2.4 2 27.4 16.1Z"/><path d="m481.7 274.9-27.4-16.1 16.4 63.4Z"/><path d="m501.7 227.6-45 29.2 25 18.1Zm33.4 44.3-33.4-44.3 18.4 53.5Zm-80.8-13.1-38 47.3 54.4 16.1Zm16.4 63.4 84.4 14-39.4-42.1Z"/><path d="m515.7 294.1 39.4 42.1-20-64.3Zm66.1-39.2-17.4-4-21.3 10.9Zm-43.4-23.1-36.7-4.2 33.4 44.3Zm-81.7 25-22.4-7.9 20 9.9Z"/><path d="m454.3 258.8-20-9.9-18 57.2Z"/><path d="m501.7 227.6-67.4 21.3 22.4 7.9Zm62.7 23.3-26-19.1 4.7 30Z"/><path d="m543.1 261.8-4.7-30-3.3 40.1Zm-108.8-12.9-31.4 60 13.4-2.8Zm-18 57.2 31 87.1 23.4-71Zm64.4 123.3 74.4-93.2-84.4-14Zm74.7-17 10-64.3-10.3-11.9Z"/><path d="m581.8 254.9-38.7 6.9-8 10.1Z"/><path d="m581.8 254.9-46.7 17 20 64.3Zm-178.9 54 44.4 84.3-31-87.1Z"/><path d="m594.4 334.2-12.6-79.3-26.7 81.3Zm-30-83.3 44.4-27.1-70.4 8Zm1 97.2 29-13.9-39.3 2Zm-118.1 45.1 33.4 36.2-10-107.2Z"/><path d="m565.4 348.1 66.8 9-37.8-22.9Zm-84.7 81.3 74.7-17-.3-76.2Zm-33.4-36.2 29.4 41.3 4-5.1Zm33.4 36.2 54.4 6.1 20.3-23.1Zm-86.8-233.6-27.3 52 67.7 1.1Z"/><path d="m434.3 248.9-67.7-1.1 36.3 61.1Zm-31.4 60-20 83.5 64.4.8Z"/><path d="m366.6 247.8-10.7 69.3 47-8.2Zm80.7 145.4-51 55.2 80.4-13.9Z"/><path d="m355.9 317.1 27 75.3 20-83.5Zm158.2 135.3 21-16.9-54.4-6.1Zm-85.8-301.9 6 98.4 67.4-21.3Z"/><path d="m428.3 150.5-34.4 45.3 40.4 53.1Zm153.5 104.4 27-31.1-44.4 27.1Zm-43.4-23.1 5-70.2-41.7 66Z"/><path d="m672.5 298.1-63.7-74.3-27 31.1ZM562.1 166.6l-18.7-5-5 70.2ZM355.9 317.1l14 77.1 13-1.8Zm40.4 131.3 83.4 13.3-3-27.2Zm83.4 13.3 34.4-9.3-37.4-17.9Z"/><path d="m476.7 434.5 37.4 17.9-33.4-23Zm132.1-210.7-46.7-57.2-23.7 65.2Zm6 202.7 17.4-69.4-66.8-9Zm-20.4-92.3 78.1-36.1-90.7-43.2Zm58.4 14.9-20.6 8 35 48.3Zm-256.5 99.3 51-55.2-64.4-.8Zm118.4-309.9-86.4 12 73.4 77.1Zm29.7-8-29.7 8 28.7 23.1Z"/><path d="m543.4 161.6-28.7-23.1-13 89.1ZM355.9 317.1l-7.3 80.1 21.3-3Zm14 77.1 26.4 54.2-13.4-56Zm244.9 32.3-49.4-78.4-10 64.3Zm17.4-69.4 20.6-8-58.4-14.9Z"/><path d="m614.8 426.5-59.4-14.1 13 73.1Zm61.4-190.6-48.4-35.3-19 23.2Zm-67.4-12.1 19-23.2-65.7-34Zm-46.7-57.2-17.7-36.1-1 31.1Zm-133.8-16.1-13-4.9-21.4 50.2ZM305.6 269.9l6 9.2 55-31.3Z"/><path d="m432.3 112.3-17 33.3 13 4.9Zm-83.7 284.9 47.7 51.2-26.4-54.2Zm219.8 88.3-33.3-50-21 16.9Z"/><path d="m568.4 485.5-13-73.1-20.3 23.1ZM305.6 269.9l61-22.1-28.7-58.2Zm61-22.1-55 31.3 44.3 38Zm-10.7 69.3-64.7 47.1 57.4 33Zm244.9-183.6-56.4-3 17.7 36.1Zm-86.1 5-11.6-25.2-74.8 37.2Zm138.1 210.6 19.7-51-78.1 36.1Z"/><path d="m337.9 189.6 28.7 58.2 27.3-52Zm-26.3 89.5-20.4 85.1 64.7-47.1Zm303.2 147.4 28.4-18.3-11-51.1Zm38-77.4 47.7 19.3-28-70.3ZM337.6 176.6l.3 13 56 6.2Zm206.8-46.1-41.3-17.2 11.6 25.2Z"/><path d="m359.9 133.5-22.3 43.1 56.3 19.2Zm-92.7 114.3 16 29.1 22.4-7Zm235.9-134.5-70.8-1-4 38.2Zm-87.8 32.3-55.4-12.1 34 62.3Zm257.2 152.5 3.7-62.2-67.4-12.1Zm-44.7-97.5-27-67.1-38.7 33.1Zm-75.7 319.1-38-67.3-34.4 9.3Zm0 0 16.3-34.2-54.3-33.1Zm98.7-94.3 11-17.2h-18.6Zm-21.6-288.9-28.4-3 27 67.1Zm-84.8-6 .7-37-42 19.8Zm106.4 294.9-7.6-17.2-28.4 18.3Zm-7.6-17.2 24-2.8-35-48.3Zm-6 46.3 13.6-29.1-36 1.1Z"/><path d="m650.8 425.4 16.4-20-5.4 2.8Z"/><path d="m661.8 408.2 5.4-2.8-24 2.8Zm53.1-123.1-13.4-47.3-25.3-1.9Zm-409.7-96.5.4 81.3 32.3-80.3Zm.4 81.3-22.4 7 28.4 2.2Zm-22.4 7 8 87.3 20.4-85.1Zm72.7 222.6 41.4-6-1-45.1Zm23-382.2-19 16.2 55.4 12.1Z"/><path d="m337.6 176.6-32.4 12 32.7 1Zm18.3 322.9 40.4-51.1-76.7 31.3Zm40.4-51.1 1 45.1 82.4-31.8Zm172.1 37.1 68.8-31-22.4-28Zm82.4-60.1 36.7 52.1-20.3-72.1ZM432.3 112.3l-53.4 5 36.4 28.3Zm168.5 21.2-55.7-40-.7 37Zm-97.7-20.2-37.4-56-33.4 55Zm-138.5-40-4 4.9 18.3 39.1Zm-70.4 72.2 11 43.1 32.4-12Zm385 34.1-50-43.1-1.4 64.1Z"/><path d="m600.8 133.5 2-53.3-57.7 13.3Zm144.1 223.7-44.4 11.2 41 42.8Zm-77.7 48.2 33.3-37-47.7-19.3Zm47.7-120.3-38.7-49.2-3.7 62.2Zm-21.7-82.3-14-23.2-51.4 21Z"/><path d="m560.4 50.3-40.3 27.9 25 15.3Zm-15.3 43.2-25-15.3-17 35.1Zm148.1 109.3-65.4-2.2 48.4 35.3Zm50.3 108.1-28.6-25.8-42.4 13Z"/><path d="m720.9 242.8-27.7-40 8.3 35Z"/><path d="m701.5 237.8-8.3-35-17 33.1Zm-220.4 312 71-30.1-72.4-58Zm87.3-64.3 31.4 57.2 37.4-88.2Zm-291.2-64.1 13.4-8-49.8-25Zm14-57.2-.6 49.2 58-16.2Zm-19.4-158.6-4.6 42.2 38.4 22.1Zm11.4 71.3-21 75.2 29 12.1Z"/><path d="m228.8 294.9 33.4 57.2 21-75.2Zm165.1 228.8 33.4 4-30-34.2Zm3.4-30.2 30 34.2 52.4-66Zm-41.4 6 32 16.3 9.4-22.3Zm-61.7-354-22.4 60.1 33.4-17Zm11 43.1-33.4 17 33.8 64.3Zm12-57.3 20.4 45.3 22.3-43.1Zm243.2-81-64.7 13.9 24.4 14Z"/><path d="m520.1 78.2-24.4-14 7.4 49.1Zm159.1 101.4-43.4-65.3-6.6 22.2Zm-50-43.1 6.6-22.2-35 19.2ZM319.6 479.7l76.7-31.3-47.7-51.2Zm395.3-194.6 6-42.3-19.4-5Z"/><path d="m685.5 78.2-49.7 36.1 43.4 65.3ZM355.9 499.5l38 24.2-6-7.9Zm32 16.3 6 7.9 3.4-30.2ZM360.6 78.2l-.7 55.3 19-16.2Z"/><path d="m360.6 78.2-43.4 53.1 42.7 2.2ZM240.8 388.4l49.8 25 .6-49.2Zm49.8 25 29 66.3 29-82.5ZM495.7 64.2l-30-6.9 37.4 56ZM301.2 474.5l18.4 5.2-29-66.3ZM409.3 600l22.4-36.2-35.4 36Zm22.4-36.2 49.4-14-53.8-22.1Z"/><path d="m427.3 527.7 53.8 22.1-1.4-88.1Zm208.5-413.4-33-34.1-2 53.3ZM417.3 0l-2 19.2 50.4 38.1ZM317.2 131.3l-23 14.2 43.4 31.1Zm397.7 153.8 21-37.2-15-5.1Zm76-111.5-56.4-28-41.3 57.2ZM685.5 78.2l-27.3 1.1-22.4 35Z"/><path d="m743.5 310.9-7.6-63-21 37.2Zm1.4 46.3-1.4-46.3-43 57.5Z"/><path d="m700.5 368.4 43-57.5-71-12.8ZM319.6 479.7l-10 24.8 46.3-5Zm-42.4-58.3 24 53.1-10.6-61.1Zm87.4-348.1 14.3 44 53.4-5Zm-47.4 58-23.6-.8.6 15Zm-53.4-38.8 29.8 38 23.6.8Zm30.4 53-15.4-7.2-7 67.3Z"/><path d="m415.3 19.2-50.7 54.1 67.7 39Zm-54.7 59-96.8 14.3 53.4 38.8ZM219.8 262.8l9 32.1 38.4-47.1Z"/><path d="m267.2 247.8-38.4 47.1 54.4-18Zm-5 104.3-21.4 36.3 50.4-24.2Zm-42.4-89.3 47.4-15 4.6-42.2Zm308.6 302 42-15.1-18.3-30Z"/><path d="m552.1 519.7 47.7 23-31.4-57.2Zm189.4-108.5-41-42.8-33.3 37Zm-138.7-331-42.4-29.9-15.3 43.2Zm84.7 397.3-36.7-52.1-13.6 29.1ZM205.8 354.2l35 34.2 21.4-36.3Zm71.4 67.2-50.7 53.3 74.7-.2Zm398.3 126.3 12-70.2-50.3-23Zm-105.1 2 29.4-7-47.7-23ZM263.8 92.5l15 45.8 14.8-7.8Zm29.8 38-14.8 7.8 15.4 7.2ZM495.7 600l32.7-35.2-47.3-15Z"/><path d="m481.1 549.8 47.3 15 23.7-45.1ZM605.8 600l7-3.2-13-54.1Zm-209.5-.2-2.4-76.1-17.3 73.1Z"/><path d="m393.9 523.7 37.8 40.1-4.4-36.1Zm-146.7 2.1 62.4-21.3-8.4-30Zm54-51.3 8.4 30 10-24.8ZM193.5 267.9l26.3-5.1-33.3-25Zm35.3 27-22 38.2 55.4 19Zm458.7 182.6 54-66.3-74.3-5.8Zm47-331.9-55.3 34 14 23.2Zm-98.7-31.3 22.4-35-55.4.9Zm-33-34.1-28.4-60-14 30.1Z"/><path d="m193.5 267.9 13.3 65.2 22-38.2Zm5.3 171.6 27.7 35.2 50.7-53.3Zm594.5-51.3-31.4-.8 32.4 34.1Zm-51.8 23 20.4-23.8-17-30.2Zm3.4-54 34.4-7.1-35.8-39.2Zm-1.4-46.3 57.8-35-65.4-28Zm-536.7 22.2-1 21.1 56.4-2.1Zm584.1-159.5-97.7 29.2 27.7 40Z"/><path d="m790.9 173.6-70 69.2 15 5.1ZM505.7 0l-40 57.3 30 6.9Zm-40 57.3-50.4-38.1 17 93.1ZM282.8 32.2l-19 60.3 96.8-14.3ZM588.4 0l-14 20.2L612.8 0Zm-28 50.3L505.7 0l-10 64.2Zm201.5 337.1 17.4-37.3-34.4 7.1Zm-58.4 128.4 2.7-12.1-18.7-26.2Z"/><path d="m687.5 477.5 54.4-6.8-.4-59.5Zm-501-239.7 33.3 25 52-57.2Zm33.3 25-26.3 5.1 35.3 27Zm-13 70.3-22.3 25.1 21.3-4Zm529.1-201.8-50.4-53.1-6.3 101.4ZM612.8 0l-38.4 20.2 28.4 60ZM475.1 600h20.6l-14.6-50.2Zm53.3-35.2 42 35.2v-50.3Zm147.1-17.1 28-31.9-16-38.3Z"/><path d="m475.1 600 6-50.2-49.4 14Z"/><path d="M409.3 600h65.8l-43.4-36.2Zm359.6-480.5-33 11.8 39.4-6Zm-34.4 26.1 1.4-14.3-56.7 48.3ZM556.1 0h-50.4l54.7 50.3Zm151.1 515.8h-3.7l-28 31.9Zm-1-12.1 35.7-33-54.4 6.8Zm55.7-116.3 31.4.8-14-38.1Z"/><path d="m739.9 527.8 2-57.1-35.7 33Zm-64.4 19.9-38.3-93.2-37.4 88.2Z"/><path d="M703.5 515.8h3.7l-1-12.1ZM282.8 32.2l77.8 46 4-4.9ZM153.5 209.6l33 28.2-30.4-72.2ZM620.2 600l55.3-52.3-75.7-5Zm-223.9-.2 35.4-36-37.8-40.1ZM588.4 0h-32.3l18.3 20.2Z"/><path d="M574.4 20.2 556.1 0l4.3 50.3ZM186.5 237.8l85.3-32.2-115.7-40Zm-22 96.3 20 24.1 22.3-25.1ZM495.7 600h74.7l-42-35.2Z"/><path d="m164.5 334.1 42.3-1-47.7-53Zm41.3 20.1-21.3 4 56.3 30.2ZM505.7 0h-88.4l48.4 57.3Zm-90.4 19.2L369.9.2l-5.3 73.1Zm-38.7 577.6 17.3-73.1-38-24.2Zm402.7-246.7 22-74.2-57.8 35ZM750.5 98.5l-59-37.2-6 16.9Z"/><path d="m685.5 78.2 6-16.9-33.3 18ZM198.8 439.5l78.4-18.1-36.4-33ZM370.6 600l6-3.2-20.7-97.3Zm0 0-14.7-100.5-46.3 5Zm6-3.2 8.3 3.2 11.4-.2Z"/><path d="m396.3 599.8-11.4.2h24.4Zm398-178.3-32.4-34.1-20.4 23.8Zm38.3-90.3-12.3-59.4-19 4.1ZM612.8 0l-10 80.2 55.4-.9Zm-7 600-6-57.3-29.4 7Z"/><path d="M570.4 600h35.4l-35.4-50.3Zm-289.2-50.3 89.4 50.3-61-95.5Zm95.4 47.1-6 3.2h14.3ZM184.5 358.2l14.3 81.3 42-51.1Zm62.7 167.6 54-51.3-74.7.2Zm0 0 34 23.9 28.4-45.2Zm573.1-254-9.7-9-9.3 13.1Zm-19 4.1 9.3-13.1-74.7-14.9ZM417.3 0l-47.4.2 45.4 19Zm188.5 600h14.4l-7.4-3.2Z"/><path d="m612.8 596.8 7.4 3.2-20.4-57.3ZM666.5 0h-53.7l45.4 79.3ZM159.1 280.1l47.7 53-13.3-65.2Zm-30 126.3 53.4 42 16.3-8.9Zm689.5-171.5-27.7-61.3-55 74.3Zm-82.7-103.6 14.6-32.8-65-20.3Zm6 339.4 52.4-49.2-52.8-10.3Zm90.7-139.5-31.3-55.3-22 74.2Zm-37.7 162.3-.6-72-52.4 49.2ZM369.9.2l-13-.2 7.7 73.3Zm47.4-.2h-60.4l13 .2ZM217.5 517.8l29.7 8-20.7-51.1Zm-83.4-270 25 32.3 27.4-42.3Z"/><path d="m186.5 237.8-27.4 42.3 34.4-12.2Zm582.4-118.3-18.4-21-14.6 32.8Zm-77.4-58.2-3.3-36.1-30 54.1Zm130.1 317.1-42.3-28.3 14 38.1Zm-11-115.6 8-27.9-82.7 13ZM356.9 0h-9.3l17 73.3Zm418.4 125.3-39.4 6-1.4 14.3ZM217.5 517.8l34.3 20.9-4.6-12.9Z"/><path d="m247.2 525.8 4.6 12.9 29.4 11Zm34 23.9-27 50.3h116.4Zm509.7-376.1-15.6-48.3-40.8 20.3Zm-22-54.1 2.4-8-20.8-13Zm51.4 152.3-1.7-36.9-8 27.9Zm-29.4-98.2 53.7-59.1-69.3 10.8ZM675.5 547.7l64.4-19.9-32.7-12Zm31.7-31.9 32.7 12-33.7-24.1Z"/><path d="m753.9 600-14-72.2-64.4 19.9ZM347.6 0l-64.8 32.2 81.8 41.1ZM156.1 165.6l115.7 40-102.7-70.1Zm-21.4 216.6 64.1 57.3-14.3-81.3Zm64.1 57.3-16.3 8.9 44 26.3Zm645.8-325-73.3-3 4 13.8Zm-69.3 10.8-4-13.8-2.4 8ZM736.9 0l-48.7 25.2 3.3 36.1Z"/><path d="m685.2 0 3 25.2L736.9 0Zm130.4 426.5-22.3-38.3 1 33.3Z"/><path d="m815.6 426.5 6-48.1-28.3 9.8Zm6-48.1 11-47.2-53.3 18.9Zm31-182.8-21.3-14-12.7 53.3ZM739.9 527.8l25.4-17-23.4-40.1Zm-588.4-51.3 66 41.3 9-43.1Zm46-380 81.3 41.8-15-45.8Zm597.4 397 20.7-67-21.3-5Zm26.7-115.1 10.7-7 .3-40.2ZM688.2 25.2 666.5 0l-8.3 79.3Z"/><path d="M685.2 0h-18.7l21.7 25.2Zm130.4 426.5 16.7-55.1-10.7 7ZM217.5 44.2l-20 52.3 66.3-4ZM108.7 179.5l25.4 68.3 19.4-38.2Z"/><path d="m153.5 209.6-19.4 38.2 52.4-10Zm-38.4 109.3 18.6 49.2 30.8-34Zm49.4 15.2-30.8 34 50.8-9.9Zm4.6-198.6 102.7 70.1 7-67.3ZM736.9 0l-45.4 61.3 88.4-30.1Z"/><path d="m197.5 96.5-28.4 39 109.7 2.8Zm635.8 447.2-38.4-50.2-29.6 17.3Zm-68-32.9 29.6-17.3-53-22.8ZM115.1 318.9l49.4 15.2-5.4-54Zm67.4 129.5-31 28.1 75-1.8Zm670.1-252.8-34 39.3 81.4 21.9Z"/><path d="m818.6 234.9 12.7-53.3-40.4-8ZM779.9 31.2l-88.4 30.1 59 37.2ZM133.7 368.1l1 14.1 49.8-24Zm83.8 149.7 20.3 52 14-31.1Zm34.3 20.9-14 31.1 43.4-20.1Zm-22 61.3 8-30.2-59.7 30.2Zm40-600-19.6 22.2 32.6 10Zm13 32.2-32.6-10 13.6 70.3Zm-85.3 64.3-31-17.2 2.6 56.2Z"/><path d="M347.6 0h-77.8l13 32.2ZM182.5 0l35 44.2 32.7-22Z"/><path d="m250.2 22.2-32.7 22 46.3 48.3Zm-130.1 346 9 38.2 5.6-24.2Zm14-120.4-19 71.1 44-38.8Z"/><path d="m120.1 368.2 14.6 14-1-14.1Zm14.6 14-5.6 24.2 69.7 33.1Z"/><path d="m109.7 322.9 10.4 45.3 13.6-.1ZM900 256.8l-81.4-21.9 1.7 36.9ZM815.3 58.2l-64.8 40.3 20.8 13Zm80.3 245.9-75.3-32.3 12.3 59.4ZM229.8 600h24.4l-16.4-30.2Z"/><path d="m237.8 569.8 16.4 30.2 27-50.3ZM85.4 259.9l29.7 59 19-71.1Z"/><path d="m85.4 259.9 24.3 63 5.4-4Z"/><path d="m115.1 318.9-5.4 4 24 45.2Zm8.6 106.5 27.8 51.1 31-28.1ZM269.8 0h-17.6l-2 22.2Z"/><path d="m129.1 406.4-5.4 19 58.8 23Z"/><path d="m89.7 440.5 34-15.1 5.4-19Z"/><path d="m89.7 440.5 39.4-34.1-9-38.2ZM779.9 31.2l-29.4 67.3 64.8-40.3ZM169.1 135.5l-60.4 44 47.4-13.9Z"/><path d="m156.1 165.6-47.4 13.9 44.8 30.1Zm61.4-121.4-51 35.1 31 17.2Zm-68.4 42.1 17.4-7-2.4-49.1Zm3 476.5 85.7 7-20.3-52Zm692.5-448.3-53.7 59.1 40.4 8ZM620.2 600h133.7l-78.4-52.3Zm119.7-72.2 14.6 72.2 10.8-89.2Z"/><path d="M753.9 600h.6l-14.6-72.2ZM149.1 86.3l-40.4 93.2 60.4-44ZM900 175.6l-55.4-61.1-13.3 67.1ZM164.1 30.2l2.4 49.1 51-35.1Z"/><path d="m166.5 79.3-17.4 7 20 49.2Zm-42.8 346.1 7.4 66.1 20.4-15Zm27.8 51.1.6 86.3 65.4-45Zm-61.8-36 41.4 51-7.4-66.1Zm-23-231.9 18.7 51.3 48.7-12.1ZM16.4 403.4l73.3 37.1 30.4-72.3ZM900 357.1l-67.4-25.9-.3 40.2Z"/><path d="m900 357.1-4.4-53-63 27.1Zm0-249.6-43.4-18.3-12 25.3Zm0 249.6-67.7 14.3 67.7.8Zm0-59.2-4.4 6.2 4.4 53Zm-55.4-183.4-29.3-56.3-44 53.3Z"/><path d="m832.3 371.4 67.7 66v-65.2Zm63.3-67.3 4.4-47.3-79.7 15Zm4.4-6.2v-41.1l-4.4 47.3Zm-67.7 73.5-16.7 55.1 84.4 10.9Z"/><path d="m900 437.4-84.4-10.9 84.4 15ZM813.3 600l20-56.3-68-32.9ZM56.7 476.7l33-36.2-73.3-37.1Zm92.4-390.4-67.7 82.2 27.3 11ZM182.5 0l-18.4 30.2 53.4 14Zm662.1 114.5 12-25.3-41.3-31Zm-29.3-56.3L801.3 0l-21.4 31.2ZM900 175.6l-68.7 6 21.3 14ZM132.1 553.7l20 9.1-21-71.3Zm-1-62.2 21 71.3-.6-86.3ZM72.4 168.6l9-.1-20.7-75.2Zm36.3 10.9-42 29.1 67.4 39.2ZM16.4 403.4l103.7-35.2-111.7 18ZM900 256.8v-81.2l-47.4 20ZM252.2 0h-69.7l67.7 22.2ZM152.1 562.8l26 37.2 59.7-30.2Z"/><path d="m81.4 168.5-14.7 40.1 42-29.1Zm818.6 273-84.4-15 63 75.2ZM895.6 0h-94.3l14 58.2ZM779.9 31.2 801.3 0h-64.4Z"/><path d="m878.6 501.7-63-75.2-20.7 67ZM813.3 600l26.3-38.2-6.3-18.1Z"/><path d="m833.3 543.7 45.3-42-83.7-8.2Zm-747.9-2 46.7 12-1-62.2Zm66.7 21.1-4.6 37.2h30.6ZM60.7 93.3l20.7 75.2 67.7-82.2Zm20.7 75.2-9 .1-5.7 40ZM124.1 0l25 86.3 15-56.1Z"/><path d="m839.6 561.8 39-60.1-45.3 42ZM900 107.5l-32.4-28.2-11 9.9Z"/><path d="m856.6 89.2 11-9.9-52.3-21.1ZM754.5 600h58.8l-48-89.2Zm58.8 0h4.3l22-38.2Zm26.3-38.2 60.4-55.1-21.4-5ZM72.4 168.6l-16.7 31.2 11 8.8Zm-5.7 40-47.3 78.5 66-27.2Zm70 391.4 15.4-37.2-20-9.1Zm0 0h10.8l4.6-37.2ZM900 175.6v-68.1l-55.4 7Z"/><path d="m867.6 79.3 28-79.3-80.3 58.2ZM900 591.8v-85.1l-60.4 55.1Z"/><path d="m878.6 501.7 21.4 5v-65.2ZM64.4 600h72.3l-4.6-46.3Zm-45-312.9 90.3 35.8-24.3-63Zm70.3 153.4-33 36.2 74.4 14.8Zm810.3-333V75.2l-32.4 4.1Z"/><path d="m70.7 516.8 14.7 24.9 45.7-50.2ZM0 220.6l19.4 66.5 47.3-78.5Zm56.7 256.1 14 40.1 60.4-25.3ZM900 75.2v-3.9l-32.4 8ZM182.5 0h-58.4l40 30.2ZM72.4 168.6l-47 22.2 30.3 9Z"/><path d="M0 220.6v58.3l19.4 8.2ZM77.7 16.2l-17 77.1 88.4-7ZM0 107.5l25.4 83.3 47-22.2Zm0 413.3 59.4-8-2.7-36.1Zm56.7-44.1 2.7 36.1 11.3 4Z"/><path d="m70.7 516.8-11.3-4 26 28.9Zm14.7 24.9-21 58.3 67.7-46.3Zm-77-155.5 111.7-18-10.4-45.3Z"/><path d="m0 345.2 8.4 41 101.3-63.3Zm16.4 58.2-16 35.1 56.3 38.2Z"/><path d="m0 333.1 109.7-10.2-90.3-35.8Zm0-112.5 66.7-12-11-8.8Zm0 58.3v54.2l19.4-46Z"/><path d="M0 333.1v12.1l109.7-22.3Z"/><path d="M0 345.2v33.2l8.4 7.8Zm8.4 41L0 433.5l16.4-30.1Zm17-195.4L0 220.6l55.7-20.8Z"/><path d="M0 197.8v22.8l25.4-29.8Z"/><path d="M0 107.5v90.3l25.4-7ZM124.1 0 77.7 16.2l71.4 70.1ZM60.7 93.3 0 107.5l72.4 61.1ZM900 600v-8.2l-60.4-30Zm0-528.7L895.6 0l-28 79.3ZM0 378.4v55.1l8.4-47.3Zm0 55.1.4 5 16-35.1Z"/><path d="M817.6 600H900l-60.4-38.2ZM900 71.3V0h-4.4ZM124.1 0H74.7l3 16.2ZM77.7 16.2l-57.3 53 40.3 24.1ZM0 544.7l85.4-3-26-28.9Zm0 0L64.4 600l21-58.3ZM16.4 68.3l4 .9L.4 0Z"/><path d="M0 96.3v11.2l60.7-14.2ZM.4 0l20 69.2 57.3-53Z"/><path d="M20.4 69.2 0 96.3l60.7-3Zm-4-.9L0 96.3l20.4-27.1ZM.4 438.5 0 520.8l56.7-44.1Zm-.4-5v87.3l.4-82.3ZM.4 0 0 69.2l16.4-.9Z"/><path d="M16.4 68.3 0 69.2v27.1ZM0 520.8v23.9l59.4-31.9Zm0 23.9V600h64.4ZM74.7 0H.4l77.3 16.2ZM.4 0H0v69.2Z"/></g></svg>