 <svg
      width="27"
      height="27"
      viewBox="0 0 27 27"
      fill="none"
      xmlns="http://www.w3.org/2000/svg"
    >
      <path
        d="M21.8333 1C20.7283 1 19.6685 1.43899 18.8871 2.22039C18.1057 3.00179 17.6667 4.0616 17.6667 5.16667V21.8333C17.6667 22.9384 18.1057 23.9982 18.8871 24.7796C19.6685 25.561 20.7283 26 21.8333 26C22.9384 26 23.9982 25.561 24.7796 24.7796C25.561 23.9982 26 22.9384 26 21.8333C26 20.7283 25.561 19.6685 24.7796 18.8871C23.9982 18.1057 22.9384 17.6667 21.8333 17.6667H5.16667C4.0616 17.6667 3.00179 18.1057 2.22039 18.8871C1.43899 19.6685 1 20.7283 1 21.8333C1 22.9384 1.43899 23.9982 2.22039 24.7796C3.00179 25.561 4.0616 26 5.16667 26C6.27174 26 7.33154 25.561 8.11295 24.7796C8.89435 23.9982 9.33333 22.9384 9.33333 21.8333V5.16667C9.33333 4.0616 8.89435 3.00179 8.11295 2.22039C7.33154 1.43899 6.27174 1 5.16667 1C4.0616 1 3.00179 1.43899 2.22039 2.22039C1.43899 3.00179 1 4.0616 1 5.16667C1 6.27174 1.43899 7.33154 2.22039 8.11295C3.00179 8.89435 4.0616 9.33333 5.16667 9.33333H21.8333C22.9384 9.33333 23.9982 8.89435 24.7796 8.11295C25.561 7.33154 26 6.27174 26 5.16667C26 4.0616 25.561 3.00179 24.7796 2.22039C23.9982 1.43899 22.9384 1 21.8333 1Z"
        stroke="white"
        strokeWidth="2"
        strokeLinecap="round"
        strokeLinejoin="round"
      />
</svg>
